<svg width="122" height="122" viewBox="30 75 100 125" fill="none" xmlns="http://www.w3.org/2000/svg">
<path d="M112.064 135.5H46.5642M79.5642 146.5V189.5M98.5642 169.5H59.0642M67.0642 157L92.0642 182M92.0642 157L67.0642 182M63.6446 98.6035L77.226 82.3059C78.4365 80.8533 80.6726 80.8692 81.8623 82.3389L94.9719 98.533C95.8917 99.6692 97.4965 99.977 98.7714 99.2618L111.235 92.27C113.493 91.0033 116.188 92.9997 115.633 95.5287L109.581 123.142C109.279 124.519 108.06 125.5 106.651 125.5H51.9459C50.5511 125.5 49.3404 124.539 49.024 123.18L42.5859 95.5341C41.9977 93.0087 44.6743 90.9769 46.9486 92.2224L59.899 99.3143C61.1569 100.003 62.7265 99.7053 63.6446 98.6035Z" stroke="#00356B" stroke-width="5" stroke-linecap="round"/>
</svg>
