<svg width="122" height="122" viewBox="0 0 122 122" fill="none" xmlns="http://www.w3.org/2000/svg">
<path d="M61.5 73V116M80.5 96H41M49 83.5L74 108.5M74 83.5L49 108.5M45.5804 25.1035L59.1617 8.80592C60.3722 7.35331 62.6084 7.36921 63.7981 8.83888L76.9077 25.033C77.8274 26.1692 79.4322 26.477 80.7072 25.7618L93.1709 18.77C95.4289 17.5033 98.1234 19.4997 97.569 22.0287L91.5168 49.6423C91.215 51.019 89.9957 52 88.5863 52H33.8816C32.4869 52 31.2762 51.0388 30.9598 49.6804L24.5216 22.0341C23.9335 19.5087 26.6101 17.4769 28.8844 18.7224L41.8348 25.8143C43.0927 26.5031 44.6622 26.2053 45.5804 25.1035Z" stroke="#00356B" stroke-width="5" stroke-linecap="round"/>
</svg>
